<svg id="Layer_1" data-name="Layer 1" xmlns="http://www.w3.org/2000/svg" width="287.19" height="95.31" viewBox="0 0 287.19 95.31"><title>Whirlpool logo - Brandlogos.net</title><path d="M308.13,346.63l-14.75,53.85h-8.62l-10.44-39.15-10.54,39.15h-8.62l-14.75-53.85h8.53l10.54,39.05,10.63-39.05h8.43l10.63,39.05,10.54-39.05Z" transform="translate(-240.41 -336.34)"/><path d="M312.06,346.82l8.53-.67v13.18l-.19,5h.29a29,29,0,0,1,11-2.2c6.9,0,11.5,3.06,11.5,14.9v23.49h-8.53V377.66c0-7.07-3.45-8-7.47-8a24.61,24.61,0,0,0-6.71,1.15v29.7H312V346.82Z" transform="translate(-240.41 -336.34)"/><path d="M355,347.3c4.41,0,5.08,2.58,5.08,5.44s-1,5.44-5.08,5.44-5-2.58-5-5.44S350.66,347.3,355,347.3Zm-4.31,15.28h8.53v37.81h-8.53Z" transform="translate(-240.41 -336.34)"/><path d="M366.37,362.57h5.84l1.15,3.06h.57A16,16,0,0,1,384.38,362a12.25,12.25,0,0,1,1.82.1v8.31a38.73,38.73,0,0,0-4.79-.48,15.43,15.43,0,0,0-6.42,1.53v28.93h-8.53V362.57Z" transform="translate(-240.41 -336.34)"/><path d="M389.75,400.48V346.82l8.53-.67v54.33Z" transform="translate(-240.41 -336.34)"/><path d="M458.72,362.1c12.07,0,16.67,7.07,16.67,19.67,0,11.84-4.31,19.48-16.86,19.48s-17-7.73-17-19.48C441.67,369.16,446.65,362.1,458.72,362.1Zm8,19.67c0-7.16-1.15-13-8-13s-8.62,5.63-8.62,13c0,6.88,1.44,12.8,8.24,12.8S466.77,388.93,466.77,381.77Z" transform="translate(-240.41 -336.34)"/><path d="M496.85,362.1c12.07,0,16.67,7.07,16.67,19.67,0,11.84-4.31,19.48-16.86,19.48s-17-7.73-17-19.48C479.79,369.16,484.77,362.1,496.85,362.1Zm8,19.67c0-7.16-1.15-13-8-13s-8.62,5.63-8.62,13c0,6.88,1.44,12.8,8.24,12.8S504.89,388.93,504.89,381.77Z" transform="translate(-240.41 -336.34)"/><path d="M519.07,400.48V346.82l8.53-.67v54.33Z" transform="translate(-240.41 -336.34)"/><path d="M405.17,362.57h6.42l.67,2.77c2.59-1.43,7.28-3.34,11.5-3.34,7.76,0,13.41,5.63,13.41,19.1,0,13.27-5.94,19.86-15.9,19.86a48,48,0,0,1-7.66-.76v17.38l-8.53,1v-56Zm8.53,30.84c2.4.1,3.74.19,6.23.19,5.27,0,8.72-2.77,8.72-13.85,0-7.54-3.07-9.55-8.62-9.55a19.36,19.36,0,0,0-6.23,1.05v22.15Z" transform="translate(-240.41 -336.34)"/><path d="M447.32,339.37c-6.32-7.35-26.54-.86-49,14.61v3.91c19.83-14,37.36-20.53,42.34-14.8,6.23,7.26-9.29,30.84-34.77,52.71s-51.15,33.8-57.38,26.55c-3.26-3.72-.57-11.94,6.23-22h-4c-8.53,12.6-11.69,23.2-7.28,28.26,8,9.17,37.65-3.34,66.39-28.07S455.27,348.54,447.32,339.37Z" transform="translate(-240.41 -336.34)" style="fill:#eeb111"/></svg>