<?xml version="1.0" encoding="UTF-8"?><svg id="Layer_1" xmlns="http://www.w3.org/2000/svg" viewBox="0 0 68.25 29.96"><defs><style>.cls-1{fill:#6d6e70;}.cls-2{fill:#fff;}.cls-3{fill:#bf0c3f;}</style></defs><path class="cls-3" d="M14.98,29.96c8.26,0,14.98-6.7,14.98-14.97S23.24,0,14.98,0,0,6.71,0,14.98s6.7,14.97,14.98,14.97"/><polygon class="cls-2" points="14.38 8.41 14.38 21.55 18.55 21.55 18.55 20.37 15.58 20.37 15.58 8.41 14.38 8.41"/><path class="cls-2" d="M10.19,11.99c.99,0,1.79-.81,1.79-1.8s-.8-1.8-1.79-1.8-1.79.81-1.79,1.8.8,1.8,1.79,1.8"/><path class="cls-2" d="M15.58,2.45c-.16,0-.45-.02-.6-.02-6.91,0-12.54,5.63-12.54,12.55,0,3.36,1.3,6.51,3.67,8.88,2.37,2.36,5.52,3.67,8.87,3.67s6.49-1.31,8.86-3.67c2.37-2.37,3.68-5.52,3.68-8.88v-.56h-8.96v1.16h7.76s0,.15,0,.18c-.39,5.91-5.33,10.59-11.33,10.59-3.04,0-5.89-1.18-8.04-3.33-2.15-2.14-3.34-4.99-3.34-8.04s1.18-5.89,3.34-8.04c2.14-2.15,5-3.33,8.04-3.33.13,0,.45,0,.6,0v-1.17Z"/><path class="cls-1" d="M41.22,5.06h-4.5v19.48h13.82v-3.79h-9.32V5.06ZM60.44,17.12h3.66v3.41c-.68.26-1.99.51-3.25.51-4.05,0-5.4-2.06-5.4-6.24s1.29-6.33,5.34-6.33c2.25,0,3.54.71,4.6,2.06l2.8-2.57c-1.7-2.44-4.69-3.18-7.49-3.18-6.3,0-9.61,3.44-9.61,10s2.99,10.06,9.58,10.06c3.02,0,5.98-.77,7.59-1.9v-9.45h-7.81v3.63Z"/></svg>